{"title":"Dor (2006) BluRay 720p x264 AAC [ TaRa ].mkv","uid":16007084,"size":1129127550,"categoryP":"video","categoryS":"hd___movies","magnet":"?xt=urn:btih:22080fc27dcdc009f49567b6f0952a74476f3653&amp;dn=Dor+%282006%29+BluRay+720p+x264+AAC+%5B+TaRa+%5D.mkv&amp;tr=udp%3A%2F%2Ftracker.leechers-paradise.org%3A6969&amp;tr=udp%3A%2F%2Fzer0day.ch%3A1337&amp;tr=udp%3A%2F%2Fopen.demonii.com%3A1337&amp;tr=udp%3A%2F%2Ftracker.coppersurfer.tk%3A6969&amp;tr=udp%3A%2F%2Fexodus.desync.com%3A6969","seeders":2,"leechers":3,"uploader":"MdTaRa","files":1,"time":1476195808,"description":"====================================================================\r\nGeneral\r\nComplete name               : Dor (2006) BluRay 720p x264 AAC [ TaRa ].mkv\r\nFormat                      : Matroska\r\nFormat version              : Version 4 / Version 2\r\nFile size                   : 1.05 GiB\r\nDuration                    : 2h 4mn\r\nOverall bit rate            : 1 211 Kbps\r\n====================================================================\r\nVideo\r\nID                          : 1\r\nFormat                      : AVC\r\nFormat/Info                 : Advanced Video Codec\r\nFormat profile              :   \r\nFormat settings, CABAC      : Yes\r\nFormat settings, ReFrames   : 4 frames\r\nCodec ID                    : V_MPEG4/ISO/AVC\r\nDuration                    : 2h 4mn\r\nBit rate                    : 1 020 Kbps\r\nWidth                       : 1 280 pixels\r\nHeight                      : 544 pixels\r\nDisplay aspect ratio        : 2.35:1\r\nFrame rate mode             : Variable\r\nFrame rate                  : 29.970 fps\r\nColor space                 : YUV\r\nChroma subsampling          : 4:2:0\r\nBit depth                   : 8 bits\r\nScan type                   : Progressive\r\nBits/(Pixel*Frame)          : 0.049\r\nStream size                 : 903 MiB (84%)\r\nTitle                       : .....::::: TaRa :::::....\r\nLanguage                    : Hindi\r\nDefault                     : Yes\r\nForced                      : No\r\nColor range                 : Limited\r\nColor primaries             : BT.709\r\nTransfer characteristics    : BT.709\r\nMatrix coefficients         : BT.709\r\n=====================================================================\r\nAudio\r\nID                          : 2\r\nFormat                      : AAC\r\nFormat/Info                 : Advanced Audio Codec\r\nFormat profile              : LC\r\nCodec ID                    : A_AAC\r\nDuration                    : 2h 4mn\r\nBit rate                    : 192 Kbps\r\nChannel(s)                  : 2 channels\r\nChannel positions           : Front: L R\r\nSampling rate               : 48.0 KHz\r\nFrame rate                  : 46.875 fps (1024 spf)\r\nCompression mode            : Lossy\r\nDelay relative to video     : -44ms\r\nStream size                 : 172 MiB (16%)\r\nTitle                       : .....::::: TaRa :::::....\r\nLanguage                    : Hindi\r\nDefault                     : Yes\r\nForced                      : No\r\n====================================================================\r\n \nhttps://extraimago.com/image/weeA \nhttps://extraimago.com/image/weeW \nhttps://extraimago.com/image/weef \nhttps://extraimago.com/image/we48 \nhttps://extraimago.com/image/we4a \nhttps://extraimago.com/image/we4w \nhttps://extraimago.com/image/we42 \nhttps://extraimago.com/image/we4N \nhttps://extraimago.com/image/we4T \nhttps://extraimago.com/image/we4j \nhttps://extraimago.com/image/we4n \nhttps://extraimago.com/image/we47 \nhttps://extraimago.com/image/we4c \nhttps://extraimago.com/image/we41 \nhttps://extraimago.com/image/we4E \nhttps://extraimago.com/image/we4O \nhttps://extraimago.com/image/we4S \nhttps://extraimago.com/image/we4q","torrent":{"xt":"urn:btih:22080fc27dcdc009f49567b6f0952a74476f3653","amp;dn":"Dor+%282006%29+BluRay+720p+x264+AAC+%5B+TaRa+%5D.mkv","amp;tr":["udp%3A%2F%2Ftracker.leechers-paradise.org%3A6969","udp%3A%2F%2Fzer0day.ch%3A1337","udp%3A%2F%2Fopen.demonii.com%3A1337","udp%3A%2F%2Ftracker.coppersurfer.tk%3A6969","udp%3A%2F%2Fexodus.desync.com%3A6969"],"infoHash":"22080fc27dcdc009f49567b6f0952a74476f3653","infoHashBuffer":{"type":"Buffer","data":[34,8,15,194,125,205,192,9,244,149,103,182,240,149,42,116,71,111,54,83]},"announce":[],"urlList":[]}}